<mxfile host="app.diagrams.net" modified="2023-06-20T18:19:49.819Z" agent="Mozilla/5.0 (Macintosh; Intel Mac OS X 10_15_7) AppleWebKit/605.1.15 (KHTML, like Gecko) Version/16.4 Safari/605.1.15" etag="bJQwsJVvdve_CvXNMHJp" version="21.5.0" type="github">
  <diagram name="第 1 页" id="qJ_y6HMZQhNRliaf67Sp">
    <mxGraphModel dx="1026" dy="642" grid="1" gridSize="10" guides="1" tooltips="1" connect="1" arrows="1" fold="1" page="1" pageScale="1" pageWidth="827" pageHeight="1169" math="0" shadow="0">
      <root>
        <mxCell id="0" />
        <mxCell id="1" parent="0" />
        <mxCell id="NFM3xwRIW5A9Vv2v7t0h-9" style="edgeStyle=orthogonalEdgeStyle;rounded=0;orthogonalLoop=1;jettySize=auto;html=1;exitX=1;exitY=0.3333333333333333;exitDx=0;exitDy=0;exitPerimeter=0;entryX=0;entryY=0.5;entryDx=0;entryDy=0;" edge="1" parent="1" source="NFM3xwRIW5A9Vv2v7t0h-1" target="NFM3xwRIW5A9Vv2v7t0h-8">
          <mxGeometry relative="1" as="geometry">
            <Array as="points">
              <mxPoint x="120" y="300" />
              <mxPoint x="180" y="300" />
              <mxPoint x="180" y="160" />
            </Array>
          </mxGeometry>
        </mxCell>
        <mxCell id="NFM3xwRIW5A9Vv2v7t0h-11" style="edgeStyle=orthogonalEdgeStyle;rounded=0;orthogonalLoop=1;jettySize=auto;html=1;exitX=1;exitY=1;exitDx=0;exitDy=0;exitPerimeter=0;entryX=0;entryY=0.5;entryDx=0;entryDy=0;" edge="1" parent="1" source="NFM3xwRIW5A9Vv2v7t0h-1" target="NFM3xwRIW5A9Vv2v7t0h-10">
          <mxGeometry relative="1" as="geometry">
            <Array as="points">
              <mxPoint x="120" y="450" />
            </Array>
          </mxGeometry>
        </mxCell>
        <mxCell id="NFM3xwRIW5A9Vv2v7t0h-1" value="user" style="shape=umlActor;verticalLabelPosition=bottom;verticalAlign=top;html=1;outlineConnect=0;" vertex="1" parent="1">
          <mxGeometry x="90" y="310" width="30" height="60" as="geometry" />
        </mxCell>
        <mxCell id="NFM3xwRIW5A9Vv2v7t0h-12" style="edgeStyle=orthogonalEdgeStyle;rounded=0;orthogonalLoop=1;jettySize=auto;html=1;entryX=0.5;entryY=0;entryDx=0;entryDy=0;entryPerimeter=0;" edge="1" parent="1" source="NFM3xwRIW5A9Vv2v7t0h-2" target="NFM3xwRIW5A9Vv2v7t0h-1">
          <mxGeometry relative="1" as="geometry" />
        </mxCell>
        <mxCell id="NFM3xwRIW5A9Vv2v7t0h-2" value="designer" style="shape=umlActor;verticalLabelPosition=bottom;verticalAlign=top;html=1;outlineConnect=0;" vertex="1" parent="1">
          <mxGeometry x="90" y="120" width="30" height="60" as="geometry" />
        </mxCell>
        <mxCell id="NFM3xwRIW5A9Vv2v7t0h-3" value="" style="endArrow=classic;html=1;rounded=0;" edge="1" parent="1" source="NFM3xwRIW5A9Vv2v7t0h-1">
          <mxGeometry width="50" height="50" relative="1" as="geometry">
            <mxPoint x="370" y="360" as="sourcePoint" />
            <mxPoint x="270" y="320" as="targetPoint" />
          </mxGeometry>
        </mxCell>
        <mxCell id="NFM3xwRIW5A9Vv2v7t0h-4" value="Log in or Log out" style="ellipse;whiteSpace=wrap;html=1;" vertex="1" parent="1">
          <mxGeometry x="270" y="270" width="120" height="80" as="geometry" />
        </mxCell>
        <mxCell id="NFM3xwRIW5A9Vv2v7t0h-8" value="Modify Information" style="ellipse;whiteSpace=wrap;html=1;" vertex="1" parent="1">
          <mxGeometry x="270" y="120" width="120" height="80" as="geometry" />
        </mxCell>
        <mxCell id="NFM3xwRIW5A9Vv2v7t0h-10" value="through Web Interface connected Database&amp;nbsp;" style="ellipse;whiteSpace=wrap;html=1;" vertex="1" parent="1">
          <mxGeometry x="270" y="410" width="120" height="80" as="geometry" />
        </mxCell>
        <mxCell id="NFM3xwRIW5A9Vv2v7t0h-13" value="consider practical User" style="text;html=1;align=center;verticalAlign=middle;resizable=0;points=[];autosize=1;strokeColor=none;fillColor=none;" vertex="1" parent="1">
          <mxGeometry x="5" y="218" width="150" height="30" as="geometry" />
        </mxCell>
        <mxCell id="NFM3xwRIW5A9Vv2v7t0h-14" value="Adding Information" style="ellipse;whiteSpace=wrap;html=1;" vertex="1" parent="1">
          <mxGeometry x="270" y="585" width="120" height="80" as="geometry" />
        </mxCell>
        <mxCell id="NFM3xwRIW5A9Vv2v7t0h-16" value="Deleting Information" style="ellipse;whiteSpace=wrap;html=1;" vertex="1" parent="1">
          <mxGeometry x="270" y="760" width="120" height="80" as="geometry" />
        </mxCell>
        <mxCell id="NFM3xwRIW5A9Vv2v7t0h-17" value="Editing Information" style="ellipse;whiteSpace=wrap;html=1;" vertex="1" parent="1">
          <mxGeometry x="270" y="930" width="120" height="80" as="geometry" />
        </mxCell>
        <mxCell id="NFM3xwRIW5A9Vv2v7t0h-18" value="" style="endArrow=classic;html=1;rounded=0;entryX=0.025;entryY=0.65;entryDx=0;entryDy=0;entryPerimeter=0;" edge="1" parent="1">
          <mxGeometry width="50" height="50" relative="1" as="geometry">
            <mxPoint x="110" y="380" as="sourcePoint" />
            <mxPoint x="278" y="637" as="targetPoint" />
            <Array as="points">
              <mxPoint x="115" y="560" />
              <mxPoint x="208" y="620" />
            </Array>
          </mxGeometry>
        </mxCell>
        <mxCell id="NFM3xwRIW5A9Vv2v7t0h-21" value="" style="endArrow=classic;html=1;rounded=0;" edge="1" parent="1" source="NFM3xwRIW5A9Vv2v7t0h-1" target="NFM3xwRIW5A9Vv2v7t0h-16">
          <mxGeometry width="50" height="50" relative="1" as="geometry">
            <mxPoint x="30" y="470" as="sourcePoint" />
            <mxPoint x="110" y="810" as="targetPoint" />
            <Array as="points">
              <mxPoint x="100" y="610" />
            </Array>
          </mxGeometry>
        </mxCell>
        <mxCell id="NFM3xwRIW5A9Vv2v7t0h-22" value="" style="endArrow=classic;html=1;rounded=0;entryX=0.033;entryY=0.338;entryDx=0;entryDy=0;entryPerimeter=0;" edge="1" parent="1" source="NFM3xwRIW5A9Vv2v7t0h-1" target="NFM3xwRIW5A9Vv2v7t0h-17">
          <mxGeometry width="50" height="50" relative="1" as="geometry">
            <mxPoint x="10" y="500" as="sourcePoint" />
            <mxPoint x="60" y="980" as="targetPoint" />
            <Array as="points">
              <mxPoint x="50" y="790" />
            </Array>
          </mxGeometry>
        </mxCell>
        <mxCell id="NFM3xwRIW5A9Vv2v7t0h-38" style="edgeStyle=orthogonalEdgeStyle;rounded=0;orthogonalLoop=1;jettySize=auto;html=1;entryX=1;entryY=0.5;entryDx=0;entryDy=0;exitX=-0.025;exitY=0.6;exitDx=0;exitDy=0;exitPerimeter=0;" edge="1" parent="1" source="NFM3xwRIW5A9Vv2v7t0h-23">
          <mxGeometry relative="1" as="geometry">
            <mxPoint x="530" y="280" as="sourcePoint" />
            <mxPoint x="360" y="280" as="targetPoint" />
            <Array as="points">
              <mxPoint x="557" y="280" />
            </Array>
          </mxGeometry>
        </mxCell>
        <mxCell id="NFM3xwRIW5A9Vv2v7t0h-23" value="Checking Information" style="ellipse;whiteSpace=wrap;html=1;" vertex="1" parent="1">
          <mxGeometry x="560" y="120" width="120" height="80" as="geometry" />
        </mxCell>
        <mxCell id="NFM3xwRIW5A9Vv2v7t0h-32" style="edgeStyle=orthogonalEdgeStyle;rounded=0;orthogonalLoop=1;jettySize=auto;html=1;entryX=1;entryY=0.5;entryDx=0;entryDy=0;" edge="1" parent="1" source="NFM3xwRIW5A9Vv2v7t0h-24" target="NFM3xwRIW5A9Vv2v7t0h-4">
          <mxGeometry relative="1" as="geometry" />
        </mxCell>
        <mxCell id="NFM3xwRIW5A9Vv2v7t0h-24" value="Login Error" style="ellipse;whiteSpace=wrap;html=1;" vertex="1" parent="1">
          <mxGeometry x="570" y="248" width="110" height="80" as="geometry" />
        </mxCell>
        <mxCell id="NFM3xwRIW5A9Vv2v7t0h-33" style="edgeStyle=orthogonalEdgeStyle;rounded=0;orthogonalLoop=1;jettySize=auto;html=1;exitX=0;exitY=0.5;exitDx=0;exitDy=0;entryX=1;entryY=0.5;entryDx=0;entryDy=0;" edge="1" parent="1" source="NFM3xwRIW5A9Vv2v7t0h-25" target="NFM3xwRIW5A9Vv2v7t0h-10">
          <mxGeometry relative="1" as="geometry" />
        </mxCell>
        <mxCell id="NFM3xwRIW5A9Vv2v7t0h-25" value="Browse Information" style="ellipse;whiteSpace=wrap;html=1;" vertex="1" parent="1">
          <mxGeometry x="560" y="360" width="120" height="80" as="geometry" />
        </mxCell>
        <mxCell id="NFM3xwRIW5A9Vv2v7t0h-35" style="edgeStyle=orthogonalEdgeStyle;rounded=0;orthogonalLoop=1;jettySize=auto;html=1;exitX=0;exitY=0.5;exitDx=0;exitDy=0;entryX=1.008;entryY=0.613;entryDx=0;entryDy=0;entryPerimeter=0;" edge="1" parent="1" source="NFM3xwRIW5A9Vv2v7t0h-26" target="NFM3xwRIW5A9Vv2v7t0h-14">
          <mxGeometry relative="1" as="geometry" />
        </mxCell>
        <mxCell id="NFM3xwRIW5A9Vv2v7t0h-26" value="Input key Information" style="ellipse;whiteSpace=wrap;html=1;" vertex="1" parent="1">
          <mxGeometry x="560" y="480" width="120" height="80" as="geometry" />
        </mxCell>
        <mxCell id="NFM3xwRIW5A9Vv2v7t0h-37" style="edgeStyle=orthogonalEdgeStyle;rounded=0;orthogonalLoop=1;jettySize=auto;html=1;entryX=0.9;entryY=0.775;entryDx=0;entryDy=0;entryPerimeter=0;exitX=0;exitY=0.5;exitDx=0;exitDy=0;" edge="1" parent="1" source="NFM3xwRIW5A9Vv2v7t0h-27" target="NFM3xwRIW5A9Vv2v7t0h-14">
          <mxGeometry relative="1" as="geometry">
            <mxPoint x="550" y="640" as="sourcePoint" />
          </mxGeometry>
        </mxCell>
        <mxCell id="NFM3xwRIW5A9Vv2v7t0h-27" value="Observe Information&amp;nbsp;" style="ellipse;whiteSpace=wrap;html=1;" vertex="1" parent="1">
          <mxGeometry x="540" y="600" width="120" height="80" as="geometry" />
        </mxCell>
        <mxCell id="NFM3xwRIW5A9Vv2v7t0h-36" style="edgeStyle=orthogonalEdgeStyle;rounded=0;orthogonalLoop=1;jettySize=auto;html=1;entryX=1.017;entryY=0.35;entryDx=0;entryDy=0;entryPerimeter=0;" edge="1" parent="1" source="NFM3xwRIW5A9Vv2v7t0h-28" target="NFM3xwRIW5A9Vv2v7t0h-16">
          <mxGeometry relative="1" as="geometry" />
        </mxCell>
        <mxCell id="NFM3xwRIW5A9Vv2v7t0h-28" value="Deleting a part of information" style="ellipse;whiteSpace=wrap;html=1;" vertex="1" parent="1">
          <mxGeometry x="560" y="720" width="120" height="80" as="geometry" />
        </mxCell>
        <mxCell id="NFM3xwRIW5A9Vv2v7t0h-30" style="edgeStyle=orthogonalEdgeStyle;rounded=0;orthogonalLoop=1;jettySize=auto;html=1;entryX=1;entryY=0.5;entryDx=0;entryDy=0;" edge="1" parent="1" source="NFM3xwRIW5A9Vv2v7t0h-29" target="NFM3xwRIW5A9Vv2v7t0h-17">
          <mxGeometry relative="1" as="geometry">
            <Array as="points">
              <mxPoint x="475" y="900" />
              <mxPoint x="475" y="970" />
            </Array>
          </mxGeometry>
        </mxCell>
        <mxCell id="NFM3xwRIW5A9Vv2v7t0h-31" style="edgeStyle=orthogonalEdgeStyle;rounded=0;orthogonalLoop=1;jettySize=auto;html=1;exitX=0;exitY=0.5;exitDx=0;exitDy=0;entryX=1;entryY=1;entryDx=0;entryDy=0;" edge="1" parent="1" source="NFM3xwRIW5A9Vv2v7t0h-29" target="NFM3xwRIW5A9Vv2v7t0h-16">
          <mxGeometry relative="1" as="geometry" />
        </mxCell>
        <mxCell id="NFM3xwRIW5A9Vv2v7t0h-29" value="Information error" style="ellipse;whiteSpace=wrap;html=1;" vertex="1" parent="1">
          <mxGeometry x="560" y="840" width="120" height="80" as="geometry" />
        </mxCell>
        <mxCell id="NFM3xwRIW5A9Vv2v7t0h-34" value="include" style="text;html=1;align=center;verticalAlign=middle;resizable=0;points=[];autosize=1;strokeColor=none;fillColor=none;" vertex="1" parent="1">
          <mxGeometry x="410" y="408" width="60" height="30" as="geometry" />
        </mxCell>
        <mxCell id="NFM3xwRIW5A9Vv2v7t0h-39" value="extend" style="text;html=1;align=center;verticalAlign=middle;resizable=0;points=[];autosize=1;strokeColor=none;fillColor=none;" vertex="1" parent="1">
          <mxGeometry x="410" y="758" width="60" height="30" as="geometry" />
        </mxCell>
        <mxCell id="NFM3xwRIW5A9Vv2v7t0h-40" value="" style="endArrow=classic;html=1;rounded=0;" edge="1" parent="1" source="NFM3xwRIW5A9Vv2v7t0h-27" target="NFM3xwRIW5A9Vv2v7t0h-16">
          <mxGeometry width="50" height="50" relative="1" as="geometry">
            <mxPoint x="420" y="715" as="sourcePoint" />
            <mxPoint x="470" y="665" as="targetPoint" />
          </mxGeometry>
        </mxCell>
        <mxCell id="NFM3xwRIW5A9Vv2v7t0h-41" value="" style="endArrow=classic;html=1;rounded=0;exitX=1;exitY=0.5;exitDx=0;exitDy=0;entryX=1;entryY=1;entryDx=0;entryDy=0;" edge="1" parent="1" target="NFM3xwRIW5A9Vv2v7t0h-17">
          <mxGeometry width="50" height="50" relative="1" as="geometry">
            <mxPoint x="660" y="630" as="sourcePoint" />
            <mxPoint x="510" y="1000" as="targetPoint" />
            <Array as="points">
              <mxPoint x="710" y="630" />
              <mxPoint x="710" y="740" />
              <mxPoint x="710" y="1000" />
            </Array>
          </mxGeometry>
        </mxCell>
      </root>
    </mxGraphModel>
  </diagram>
</mxfile>
